<svg version="1.0" xmlns="http://www.w3.org/2000/svg" width="600px" height="180px" viewBox="0 0 6000 1800">
 <title>Search</title>
 <g id="layer1" fill="#383838" stroke="none">
 	<path d="M20 1763 c11 -21 231 -402 488 -848 443 -767 469 -810 495 -810 27 0 43 26 280 437 206 357 254 435 263 422 7 -8 122 -206 255 -439 219 -381 247 -425 269 -425 26 0 77 86 791 1327 74 128 136 233 139 233 3 0 208 -351 454 -780 419 -727 451 -780 476 -780 25 0 43 28 231 353 112 193 226 391 254 439 l51 86 253 -439 c238 -413 256 -440 280 -437 23 3 79 96 493 813 257 446 477 827 488 848 l21 37 -3001 0 -3001 0 21 -37z m5906 -7 c2 -2 -916 -1590 -924 -1598 -4 -4 -123 190 -262 432 -209 361 -258 440 -276 440 -17 0 -66 -79 -275 -440 -140 -242 -256 -440 -259 -440 -4 0 -213 360 -465 799 -253 440 -462 798 -465 796 -4 -2 -213 -362 -466 -799 -345 -597 -462 -792 -470 -783 -7 7 -112 188 -234 402 -122 215 -233 407 -246 428 -49 75 -43 82 -323 -404 -143 -249 -258 -436 -262 -432 -5 5 -215 367 -467 804 l-459 794 1071 5 c848 5 4777 1 4782 -4z"/>
 </g>
</svg>